<?xml version="1.0" encoding="UTF-8" standalone="no"?>
<!DOCTYPE svg PUBLIC "-//W3C//DTD SVG 1.1//EN" "http://www.w3.org/Graphics/SVG/1.1/DTD/svg11.dtd">
<svg xmlns="http://www.w3.org/2000/svg" version="1.1" viewBox="0 0 235 230">
<path fill="rgb(45,51,39)" fill-opacity="1.000" d="M 78.21 2.31 c 0.03 0.62 0.18 1.15 0.46 1.58 0.18 0.28 0.24 0.59 0.19 0.92 -0.13 0.83 0.23 1.31 1.08 1.43 0.33 0.05 0.53 0.23 0.59 0.56 0.17 0.83 0.74 1.24 1.72 1.24 0.21 1.42 0.78 2.51 1.69 3.27 0.46 0.39 0.65 0.29 0.56 -0.31 -0.46 -1.00 -0.45 -1.75 0.04 -2.25 0.80 0.88 1.40 1.89 1.80 3.03 0.11 0.31 0.28 0.58 0.53 0.81 1.31 1.44 2.54 3.31 3.69 5.60 0.53 1.05 1.07 1.27 1.60 0.66 0.18 -0.28 0.27 -0.58 0.27 -0.91 -0.11 -4.40 0.62 -8.27 2.20 -11.62 0.35 -0.74 0.70 -0.75 1.06 -0.01 2.68 5.52 5.86 10.36 9.54 14.50 0.22 0.25 0.35 0.54 0.39 0.88 0.08 0.69 0.17 1.20 0.28 1.52 0.11 0.32 0.30 0.57 0.57 0.76 0.88 0.61 1.42 1.23 1.64 1.86 0.52 1.53 1.50 2.65 2.95 3.36 1.08 0.66 2.21 1.61 3.38 2.87 6.39 6.89 12.69 13.60 18.90 20.14 0.23 0.24 0.44 0.50 0.62 0.78 1.23 1.87 2.00 4.20 2.29 6.98 -0.31 0.69 -0.39 1.77 -0.24 3.24 0.11 1.02 0.32 1.04 0.65 0.07 0.53 -1.59 0.64 -2.69 0.34 -3.31 0.36 -0.52 0.59 -1.26 0.69 -2.21 0.04 -0.33 0.10 -0.34 0.19 -0.02 0.55 1.58 0.84 3.42 0.87 5.52 0.02 1.29 0.22 1.73 0.61 1.31 0.26 -0.21 0.43 -0.47 0.51 -0.79 0.27 -1.04 0.53 -1.73 0.77 -2.06 0.20 -0.26 0.30 -0.23 0.30 0.10 -0.01 2.00 -0.48 4.20 -1.42 6.62 -0.16 0.39 -0.05 0.70 0.31 0.92 1.02 0.61 2.27 1.17 3.75 1.68 1.01 0.35 1.94 0.21 2.81 -0.42 2.59 -1.91 5.13 -2.64 7.62 -2.20 0.33 0.06 0.62 0.19 0.89 0.39 2.65 1.98 5.28 4.78 7.89 8.39 0.65 0.91 1.51 1.56 2.56 1.95 4.55 1.66 9.47 3.99 14.77 6.98 0.72 0.41 0.98 1.01 0.77 1.80 -0.64 2.53 -2.38 4.66 -5.19 6.40 -0.70 0.43 -0.66 0.80 0.10 1.09 13.54 5.18 27.01 12.11 40.42 20.79 0.19 0.13 0.39 0.21 0.61 0.26 4.97 1.15 9.96 1.97 14.98 2.48 0.97 0.10 1.37 1.45 1.19 4.06 -0.20 3.03 -1.44 5.72 -3.71 8.08 -0.24 0.24 -0.42 0.51 -0.57 0.81 -1.52 3.16 -4.09 5.57 -7.70 7.22 -0.31 0.13 -0.57 0.33 -0.79 0.58 -5.25 6.02 -11.23 9.45 -17.92 10.31 -0.33 0.04 -0.66 0.10 -0.99 0.17 -4.37 1.00 -9.23 2.03 -14.57 3.08 -0.81 0.16 -1.58 -0.24 -2.31 -1.19 -1.09 -1.18 -1.73 -1.70 -1.94 -1.56 -2.26 1.52 -4.47 2.98 -6.61 4.38 -0.55 0.36 -1.10 0.36 -1.64 -0.02 -3.56 -2.50 -6.93 -4.45 -10.11 -5.85 -0.30 -0.13 -0.62 -0.19 -0.95 -0.18 -1.86 0.05 -3.39 -0.60 -4.61 -1.96 -0.22 -0.25 -0.48 -0.44 -0.79 -0.57 -5.82 -2.60 -11.83 -3.30 -18.02 -2.10 -0.65 0.12 -0.94 0.51 -0.87 1.16 0.52 4.78 1.16 9.39 1.91 13.83 0.02 0.11 1.61 1.03 4.75 2.75 13.18 7.18 25.39 14.39 36.63 21.62 3.52 2.27 7.36 5.06 11.50 8.37 1.60 1.28 2.85 2.84 3.74 4.69 3.91 8.15 7.11 16.90 9.60 26.23 0.07 0.28 -0.03 0.39 -0.32 0.33 -12.67 -2.76 -25.22 -5.24 -37.67 -7.43 -1.76 -0.67 -3.69 -1.09 -5.79 -1.25 -1.35 -0.10 -2.77 -0.51 -4.25 -1.21 -7.74 -2.29 -15.58 -3.89 -23.50 -4.79 -5.28 -0.60 -10.76 -0.52 -16.44 0.24 -0.33 0.05 -0.63 0.17 -0.90 0.38 -1.04 0.78 -2.23 0.70 -3.57 -0.27 -0.27 -0.19 -0.57 -0.32 -0.90 -0.38 -1.85 -0.32 -3.72 -0.57 -5.63 -0.74 -0.33 -0.03 -0.43 -0.20 -0.31 -0.50 0.10 -0.24 0.20 -0.57 0.29 -0.98 0.90 -0.40 1.36 -0.97 1.38 -1.69 0.01 -0.33 -0.15 -0.51 -0.48 -0.54 -0.42 -0.04 -0.83 0.54 -1.23 1.73 -0.76 -0.18 -1.20 0.01 -1.30 0.57 -0.07 0.33 -0.25 0.56 -0.56 0.69 -0.61 0.26 -0.79 0.03 -0.54 -0.70 0.56 -1.60 1.36 -3.21 2.40 -4.83 0.41 -0.70 0.21 -1.01 -0.60 -0.95 -0.76 0.09 -0.86 -0.15 -0.30 -0.72 1.13 -1.14 2.35 -1.98 3.66 -2.54 0.45 -0.18 0.51 -0.44 0.16 -0.78 -6.41 -6.25 -11.85 -12.00 -16.34 -17.24 1.78 0.75 4.04 2.48 6.77 5.19 0.74 0.73 1.13 1.06 1.16 0.97 0.19 -0.27 0.16 -0.53 -0.07 -0.77 -2.93 -3.06 -5.63 -5.53 -8.11 -7.39 -0.56 -0.73 -1.34 -1.54 -2.35 -2.44 -8.61 -7.60 -17.43 -14.63 -26.47 -21.08 -0.27 -0.19 -0.49 -0.43 -0.66 -0.72 -0.22 -0.35 0.04 -0.29 0.75 0.18 3.17 2.09 6.32 4.13 9.44 6.10 4.88 3.46 9.71 7.04 14.50 10.75 2.14 1.81 3.28 2.61 3.44 2.40 0.19 -0.26 -0.78 -1.15 -2.90 -2.69 -4.31 -3.34 -8.60 -6.82 -12.85 -10.44 -0.72 -0.61 -1.27 -0.80 -1.65 -0.56 0.01 -0.55 -0.28 -1.03 -0.85 -1.44 -2.63 -1.83 -5.21 -3.66 -7.75 -5.50 -6.97 -5.04 -14.12 -9.27 -21.47 -12.71 -0.83 -0.39 -1.68 -0.42 -2.54 -0.10 -7.02 2.55 -13.43 5.69 -19.24 9.44 -1.10 0.71 -2.06 1.14 -2.88 1.30 -0.33 0.05 -0.60 0.20 -0.81 0.47 -1.20 1.28 -2.72 2.61 -4.56 3.98 -4.83 3.59 -9.14 7.57 -12.91 11.93 -0.71 0.78 -0.92 0.66 -0.65 -0.35 1.44 -5.37 2.62 -10.63 3.53 -15.78 0.06 -0.33 0.23 -0.58 0.51 -0.76 0.78 -0.50 1.19 -1.26 1.24 -2.29 0.02 -0.34 0.09 -0.66 0.20 -0.97 3.84 -10.71 8.88 -21.11 15.14 -31.22 0.48 -0.77 0.73 -1.34 0.75 -1.71 0.84 -0.61 1.66 -1.70 2.46 -3.28 0.15 -0.30 0.09 -0.36 -0.20 -0.18 -1.23 0.77 -2.30 1.83 -3.22 3.17 -2.05 1.73 -4.29 4.00 -6.73 6.81 -0.26 0.31 -0.38 0.29 -0.34 -0.06 0.02 -0.33 0.11 -0.64 0.28 -0.93 3.32 -5.84 7.25 -11.34 11.81 -16.51 6.18 -7.01 13.46 -13.31 21.83 -18.92 0.74 -0.50 0.93 -1.17 0.55 -1.98 -2.06 -4.46 -2.97 -9.01 -2.72 -13.66 0.02 -0.33 -0.01 -0.66 -0.09 -0.99 -0.33 -1.40 -0.29 -2.90 0.12 -4.51 0.11 -0.42 0.27 -0.42 0.50 0.00 -0.01 1.64 0.26 3.06 0.79 4.25 -0.17 1.73 0.06 2.57 0.71 2.50 0.46 -0.05 0.45 -0.88 -0.04 -2.50 0.22 -0.90 0.31 -1.98 0.29 -3.25 -0.12 -6.44 0.95 -12.11 3.21 -17.00 0.24 1.70 0.24 3.70 0.00 6.00 -0.51 1.30 -0.65 2.62 -0.40 3.94 0.14 0.70 0.36 0.80 0.69 0.31 0.20 -1.07 0.27 -2.15 0.21 -3.25 0.81 -3.19 1.24 -5.60 1.29 -7.21 0.67 0.12 0.95 -0.15 0.84 -0.80 -0.06 -0.33 -0.02 -0.64 0.12 -0.94 1.73 -3.75 2.81 -7.51 3.23 -11.30 0.04 -0.33 0.12 -0.66 0.24 -0.97 2.20 -5.89 4.79 -11.50 7.76 -16.84 0.40 -0.72 0.64 -1.47 0.72 -2.25 0.02 -0.34 0.19 -0.53 0.52 -0.59 0.95 -0.16 1.55 -0.48 1.79 -0.97 0.14 -0.29 0.20 -0.61 0.17 -0.94 -0.07 -0.87 0.11 -1.29 0.55 -1.27 0.33 0.01 0.59 -0.12 0.78 -0.40 0.88 -1.30 1.45 -2.46 1.72 -3.47 0.08 -0.33 0.29 -0.47 0.62 -0.43 1.40 0.16 2.47 -0.71 3.19 -2.62 0.47 -1.24 1.01 -1.44 1.63 -0.59 0.21 0.27 0.31 0.57 0.33 0.90 Z M 66.46 35.00 c -0.17 0.21 -0.33 0.79 -0.50 1.75 -0.37 0.26 -0.61 0.60 -0.71 1.00 -0.83 3.24 -1.70 6.15 -2.62 8.72 -0.13 0.31 -0.36 0.49 -0.69 0.53 0.00 0.06 0.08 -0.37 0.25 -1.31 1.52 -8.53 3.56 -16.57 6.12 -24.13 0.24 -0.64 0.31 -0.94 0.22 -0.91 -0.31 0.11 -0.54 0.31 -0.69 0.61 -5.59 11.51 -9.03 23.92 -10.34 37.24 -1.31 13.33 -1.18 26.72 0.38 40.19 0.04 0.33 0.00 0.34 -0.12 0.03 -1.43 -3.67 -2.44 -6.93 -3.04 -9.76 -0.06 -0.27 -0.19 -0.32 -0.41 -0.15 -11.34 8.87 -20.76 19.70 -28.25 32.50 -0.39 0.67 -0.32 0.81 0.22 0.42 0.27 -0.20 0.47 -0.45 0.58 -0.76 0.33 -0.55 0.79 -1.12 1.39 -1.72 3.63 -3.62 7.03 -7.14 10.19 -10.56 0.78 -0.81 1.01 -0.80 0.68 0.03 -0.12 0.31 -0.29 0.59 -0.50 0.85 -4.91 5.82 -9.20 12.29 -12.87 19.39 -1.77 3.46 -3.53 6.85 -5.30 10.16 -0.41 0.78 -0.23 0.96 0.55 0.55 3.47 -2.12 6.72 -3.67 9.75 -4.67 1.02 -0.34 1.33 -0.17 0.94 0.50 -0.17 0.29 -0.40 0.51 -0.69 0.67 -3.28 1.70 -5.92 3.67 -7.94 5.89 -0.16 0.52 0.05 0.65 0.63 0.38 6.65 -3.14 13.33 -6.41 20.02 -9.81 2.06 -0.97 4.06 -0.85 5.99 0.34 19.21 11.77 36.87 25.31 52.99 40.59 7.95 7.54 14.90 15.31 20.84 23.30 0.44 0.57 0.39 1.11 -0.12 1.61 -1.09 1.05 -2.18 2.05 -3.27 3.01 -0.79 0.69 -0.66 0.99 0.38 0.93 4.40 -0.27 8.80 -0.26 13.19 0.05 1.50 0.11 1.74 -0.39 0.73 -1.51 -5.60 -6.41 -10.56 -13.58 -14.88 -21.51 -0.40 -0.74 -0.84 -1.39 -1.31 -1.94 -0.18 -0.40 -0.31 -0.55 -0.38 -0.46 -0.20 0.27 -0.24 0.55 -0.11 0.86 0.94 2.14 1.72 4.10 2.33 5.88 0.11 0.31 0.13 0.63 0.08 0.96 -0.13 0.49 -0.29 0.60 -0.48 0.32 -3.64 -5.13 -6.46 -11.11 -8.48 -17.94 -0.43 -1.41 -0.76 -1.39 -1.00 0.07 -0.29 1.78 -0.53 3.66 -0.73 5.63 -0.19 1.81 -0.74 1.93 -1.67 0.37 -5.68 -9.61 -10.70 -20.12 -15.07 -31.53 -0.12 -0.32 -0.20 -0.64 -0.25 -0.97 -0.32 -2.18 -1.05 -4.37 -2.20 -6.56 -0.15 -0.29 -0.25 -0.61 -0.30 -0.94 -0.16 -1.03 -0.38 -2.19 -0.68 -3.50 -0.36 -1.62 -0.70 -1.62 -1.03 0.01 -0.42 1.69 -0.57 3.73 -0.47 6.11 0.17 3.78 0.40 7.59 0.69 11.44 -0.13 1.14 -0.36 1.28 -0.69 0.44 -0.90 -2.38 -1.34 -4.86 -1.31 -7.44 -0.04 -0.70 -0.63 -0.88 -1.76 -0.53 -0.32 0.09 -0.52 -0.04 -0.60 -0.36 -0.46 -2.08 -1.11 -4.18 -1.95 -6.30 -4.06 -10.18 -6.69 -21.30 -7.89 -33.38 -0.09 -0.96 0.33 -1.53 1.28 -1.72 3.20 -0.54 6.92 -0.44 11.17 0.29 1.53 0.26 2.21 0.11 2.06 -0.46 -0.08 -0.32 -0.25 -0.58 -0.51 -0.79 -1.80 -1.45 -2.86 -3.04 -3.20 -4.76 -0.07 -0.33 0.04 -0.58 0.31 -0.77 1.43 -0.98 3.37 -0.97 5.84 0.03 5.57 2.26 11.18 5.15 16.81 8.69 1.14 0.71 2.28 1.15 3.44 1.31 0.80 0.13 3.23 1.69 7.31 4.69 1.81 1.33 3.65 2.91 5.53 4.76 0.55 0.54 0.99 0.46 1.32 -0.23 1.26 -2.63 3.59 -4.13 6.99 -4.52 1.92 -0.21 3.77 0.03 5.57 0.72 2.60 1.00 4.93 1.65 6.97 1.95 0.33 0.04 0.65 0.00 0.95 -0.14 3.26 -1.60 6.55 -2.09 9.86 -1.48 3.47 0.64 6.88 1.55 10.24 2.73 0.25 0.08 0.45 0.01 0.60 -0.21 0.79 -1.13 1.20 -2.39 1.22 -3.76 0.01 -1.01 0.49 -1.35 1.44 -1.01 3.40 1.27 6.55 2.71 9.44 4.31 1.42 0.79 3.09 1.52 5.02 2.19 1.35 1.13 2.64 2.52 3.85 4.19 0.22 0.29 0.20 0.49 -0.06 0.60 -5.40 -3.80 -10.82 -6.48 -16.25 -8.04 -0.71 -0.20 -1.13 0.46 -1.25 2.00 -0.05 0.63 0.95 1.46 3.00 2.50 0.58 0.29 0.81 0.47 0.70 0.52 -0.30 0.15 -0.60 0.17 -0.91 0.04 -5.80 -2.35 -12.23 -3.45 -19.29 -3.31 -1.51 0.03 -2.69 0.37 -3.54 1.01 -0.27 0.20 -0.30 0.44 -0.10 0.70 0.54 0.72 1.34 1.41 2.40 2.08 0.29 0.18 0.35 0.42 0.21 0.72 0.03 -0.06 -0.27 -0.25 -0.91 -0.57 -4.49 -2.29 -9.11 -3.66 -13.87 -4.13 -2.75 -0.29 -5.19 0.04 -7.30 0.99 -0.93 0.43 -1.58 1.12 -1.95 2.07 -1.00 2.59 -1.31 5.47 -0.94 8.63 -0.07 1.11 -0.22 1.50 -0.44 1.19 -1.12 -1.64 -1.71 -3.64 -1.75 -6.00 -0.11 -1.14 -0.70 -1.96 -1.77 -2.44 -3.32 -2.86 -6.75 -5.21 -10.29 -7.04 -1.45 -1.81 -3.03 -2.45 -4.75 -1.92 -3.24 -1.60 -6.76 -3.42 -10.56 -5.48 -1.43 -0.77 -1.61 -0.55 -0.52 0.66 1.61 1.80 3.33 3.58 5.16 5.37 0.24 0.23 0.20 0.28 -0.11 0.16 -5.52 -2.23 -11.09 -3.73 -16.72 -4.50 -2.55 -0.35 -4.46 -0.10 -5.71 0.75 -0.43 3.19 0.04 5.78 1.42 7.75 0.54 4.21 1.36 8.99 2.47 14.35 0.06 0.31 0.16 0.33 0.30 0.04 1.79 -3.81 3.53 -6.81 5.21 -8.99 0.21 -0.27 0.33 -0.23 0.36 0.10 0.99 9.78 3.81 20.04 8.45 30.79 0.17 1.05 0.60 1.93 1.31 2.65 0.37 0.22 0.50 0.09 0.38 -0.38 -0.24 -0.92 -0.62 -1.78 -1.15 -2.56 -1.79 -5.75 -3.22 -11.40 -4.29 -16.96 0.23 -0.20 0.47 -0.30 0.71 -0.29 3.28 9.77 7.08 19.81 11.40 30.13 0.38 0.91 0.70 0.89 0.95 -0.07 0.87 -3.25 2.03 -6.27 3.48 -9.06 0.30 -0.08 0.52 0.11 0.65 0.56 3.85 13.62 10.48 25.83 19.87 36.63 4.87 5.56 10.15 10.13 15.84 13.72 0.27 0.19 0.58 0.29 0.91 0.33 0.48 0.17 0.31 -0.01 -0.50 -0.55 -2.19 -1.62 -4.19 -3.28 -6.00 -5.00 -6.61 -6.28 -12.44 -13.51 -17.49 -21.70 -0.17 -0.28 -0.09 -0.45 0.23 -0.51 -0.06 0.11 0.11 0.43 0.51 0.96 10.05 13.01 21.99 23.42 35.82 31.25 0.29 0.16 0.60 0.29 0.92 0.37 8.68 2.18 16.93 5.42 24.76 9.70 0.29 0.16 0.60 0.21 0.93 0.16 0.39 0.04 0.16 -0.21 -0.68 -0.73 -3.60 -2.26 -6.80 -4.29 -9.58 -6.10 -0.28 -0.19 -0.26 -0.22 0.06 -0.12 3.73 1.25 7.80 3.36 12.21 6.32 2.31 1.53 4.27 2.93 5.86 4.20 1.53 1.22 1.86 0.95 0.99 -0.80 -2.59 -5.18 -4.55 -9.73 -5.88 -13.65 -0.10 -0.32 -0.05 -0.35 0.18 -0.10 1.38 1.54 2.85 3.70 4.41 6.50 0.40 0.70 0.63 1.04 0.70 1.00 0.28 -0.17 0.36 -0.40 0.22 -0.71 -2.13 -4.57 -4.60 -8.80 -7.39 -12.71 -0.96 -1.34 -2.12 -2.47 -3.47 -3.40 -9.88 -6.77 -19.98 -13.08 -30.31 -18.93 -0.57 -0.33 -0.78 -0.35 -0.62 -0.06 0.16 0.29 0.39 0.51 0.68 0.68 3.34 1.89 6.54 4.20 9.63 6.94 0.09 0.08 0.09 0.13 -0.01 0.15 -0.33 0.07 -0.63 0.02 -0.92 -0.15 -4.10 -2.43 -8.82 -5.02 -14.15 -7.77 -0.71 -0.37 -0.84 -0.23 -0.37 0.42 0.33 0.59 0.90 1.12 1.70 1.60 0.29 0.17 0.36 0.28 0.22 0.33 -0.31 0.11 -0.61 0.08 -0.89 -0.09 -1.23 -0.77 -2.61 -1.74 -4.14 -2.93 -0.50 -0.19 -0.71 -0.14 -0.63 0.13 0.31 1.05 0.61 1.79 0.88 2.21 0.23 1.25 -0.02 1.35 -0.75 0.32 -7.94 -11.23 -12.10 -24.05 -12.48 -38.47 0.06 -1.00 0.74 -1.67 2.04 -2.00 0.53 -0.14 2.12 -0.05 4.75 0.25 7.80 0.90 15.39 2.59 22.78 5.09 0.31 0.11 0.63 0.10 0.94 -0.01 1.51 -0.56 2.17 -2.07 1.97 -4.53 -0.06 -0.82 -0.41 -1.50 -1.03 -2.03 -2.61 -2.43 -5.52 -5.34 -8.72 -8.71 -3.31 -3.48 -6.98 -5.81 -11.00 -7.00 -0.89 -0.29 -0.92 -0.66 -0.10 -1.11 1.02 -0.62 2.24 -0.93 3.66 -0.95 3.99 -0.04 7.84 0.44 11.56 1.44 1.06 0.48 1.04 0.67 -0.06 0.56 -3.33 -0.32 -5.92 -0.41 -7.75 -0.25 -0.43 0.09 -0.49 0.24 -0.16 0.47 0.27 0.19 0.58 0.29 0.91 0.32 2.95 0.15 5.43 1.58 7.44 4.27 2.16 3.20 4.82 6.12 8.00 8.75 5.65 4.69 12.11 8.56 19.37 11.63 0.52 0.23 1.17 0.24 1.94 0.02 4.73 0.73 8.80 0.39 12.19 -1.02 2.52 -1.06 5.04 -2.13 7.56 -3.23 2.48 -0.80 4.36 -1.65 5.64 -2.56 0.63 -0.45 0.56 -0.73 -0.20 -0.84 -1.12 -0.16 -1.58 -0.66 -1.38 -1.50 0.80 -3.33 1.12 -5.27 0.94 -5.81 -0.59 -2.33 -1.61 -4.31 -3.06 -5.94 -0.72 -0.80 -1.35 -1.16 -1.88 -1.08 -0.33 0.06 -0.52 0.25 -0.57 0.58 -0.35 2.39 0.01 4.54 1.08 6.44 0.16 0.29 0.38 0.54 0.65 0.73 1.32 0.94 1.48 2.38 0.47 4.33 -0.28 0.55 -0.66 0.62 -1.14 0.23 -3.23 -2.71 -4.85 -5.56 -4.84 -8.54 -0.21 -3.40 -0.58 -7.39 -1.10 -11.96 -0.07 -0.62 -0.37 -1.10 -0.91 -1.42 -1.98 -1.19 -3.89 -2.48 -5.74 -3.87 -0.92 -1.36 -2.15 -2.27 -3.71 -2.75 -0.60 -0.31 -1.16 -0.67 -1.69 -1.06 -3.24 -2.43 -6.42 -4.12 -9.52 -5.09 -0.32 -0.11 -0.61 -0.26 -0.88 -0.46 -2.85 -2.08 -5.93 -3.52 -9.22 -4.33 -1.12 -0.27 -1.86 -0.03 -2.23 0.74 -0.14 0.30 -0.10 0.57 0.13 0.81 0.43 0.45 0.99 0.92 1.69 1.41 0.27 0.20 0.31 0.43 0.13 0.71 -0.04 0.03 -0.32 -0.07 -0.85 -0.29 -1.05 -0.44 -2.16 -0.76 -3.34 -0.95 -1.24 -0.29 -2.10 0.15 -2.59 1.33 -0.51 1.53 -1.70 2.40 -3.57 2.62 -0.32 0.04 -0.26 -0.60 0.19 -1.90 0.95 -1.21 0.45 -1.54 -1.50 -1.00 -1.72 0.10 -2.98 0.28 -3.78 0.55 -0.31 0.11 -0.63 0.13 -0.96 0.08 -1.61 -0.25 -2.62 -1.00 -3.04 -2.26 -0.10 -0.31 -0.30 -0.56 -0.58 -0.74 -2.10 -1.34 -3.72 -2.92 -4.87 -4.75 -0.18 -0.28 -0.14 -0.53 0.11 -0.75 0.27 -0.23 0.89 0.12 1.87 1.08 0.71 0.69 1.11 0.99 1.19 0.89 0.21 -0.26 0.24 -0.54 0.10 -0.84 -0.86 -1.87 -1.51 -3.72 -1.93 -5.56 -0.07 -0.33 -0.23 -0.60 -0.47 -0.83 -0.21 -0.20 -0.18 -0.58 0.11 -1.12 3.93 -1.20 7.07 -0.94 9.44 0.77 3.15 2.29 6.12 4.96 8.89 8.02 0.18 0.18 0.37 0.19 0.58 0.04 3.00 -2.27 4.82 -4.48 5.45 -6.64 0.09 -0.32 0.02 -0.60 -0.22 -0.83 -0.98 -0.94 -2.34 -1.50 -4.08 -1.66 -0.33 -0.04 -0.62 -0.16 -0.86 -0.39 -1.57 -1.45 -2.97 -2.64 -4.20 -3.56 -3.08 -2.59 -6.22 -4.70 -9.44 -6.35 -0.51 -0.26 -1.05 -0.32 -1.60 -0.18 -5.46 1.42 -11.20 3.10 -17.21 5.03 -0.57 -0.08 -0.68 -0.28 -0.31 -0.60 1.55 -1.35 2.90 -2.70 4.07 -4.04 0.40 -0.48 0.32 -0.87 -0.23 -1.16 -4.50 -2.38 -9.29 -3.80 -14.37 -4.25 -0.46 -0.04 -0.75 0.17 -0.85 0.62 -0.41 1.70 -0.60 3.24 -0.56 4.64 0.01 0.39 -0.14 0.55 -0.46 0.50 -0.81 -5.02 -1.66 -10.02 -2.54 -15.00 -0.50 -2.83 -2.40 -5.16 -5.71 -7.00 -3.09 -2.25 -6.13 -4.98 -9.14 -8.20 -0.22 -0.24 -0.46 -0.47 -0.71 -0.70 -8.19 -7.46 -15.07 -15.27 -20.63 -23.41 -0.77 -1.14 -1.46 -2.38 -2.06 -3.73 -0.85 -1.75 -2.17 -4.17 -3.96 -7.25 -0.23 -0.39 -0.45 -0.39 -0.67 0.00 -4.33 7.67 -7.80 15.76 -10.41 24.29 Z M 128.00 65.21 c 1.27 0.81 2.13 1.08 2.58 0.80 0.28 -0.17 0.45 -0.42 0.50 -0.75 0.71 -5.36 -1.17 -10.10 -5.64 -14.20 -4.43 -4.05 -8.48 -8.32 -12.15 -12.81 -2.18 -2.64 -4.37 -5.14 -6.58 -7.50 -3.68 -4.34 -6.94 -8.82 -9.77 -13.42 -0.34 -0.55 -0.54 -0.50 -0.62 0.14 -0.40 2.65 -0.50 5.74 -0.32 9.28 0.13 2.55 1.22 4.36 3.25 5.44 0.29 0.17 0.45 0.08 0.47 -0.25 0.11 -1.52 -0.13 -3.07 -0.73 -4.66 -0.12 -0.31 -0.05 -0.58 0.20 -0.79 0.20 -0.19 0.57 0.13 1.12 0.95 1.25 1.86 2.00 3.77 2.25 5.75 0.11 1.64 1.28 3.72 3.50 6.25 3.64 4.14 8.09 8.43 13.38 12.87 1.89 1.59 3.23 3.19 4.03 4.80 0.14 0.30 0.35 0.55 0.61 0.76 1.61 1.26 2.23 2.87 1.86 4.82 -0.39 2.02 0.30 2.86 2.06 2.52 Z M 152.46 91.00 c 0.01 1.17 0.37 2.15 1.10 2.94 1.40 1.52 2.90 2.69 4.50 3.50 1.26 0.49 2.35 0.11 3.25 -1.13 0.58 -0.74 0.39 -1.29 -0.58 -1.66 -0.32 -0.10 -0.63 -0.09 -0.94 0.04 -0.30 0.13 -0.73 0.23 -1.29 0.31 -0.96 0.14 -1.18 -0.21 -0.68 -1.03 0.30 -0.49 0.44 -1.05 0.43 -1.68 0.43 -0.32 0.49 -0.73 0.19 -1.23 -1.41 -2.29 -3.44 -3.56 -6.11 -3.80 -0.91 -0.08 -1.42 0.33 -1.52 1.25 -0.20 1.77 0.35 2.60 1.65 2.49 Z M 168.53 139.34 c -0.14 -0.09 -0.22 -0.05 -0.23 0.11 -0.26 2.84 -1.77 4.93 -4.55 6.30 -1.23 0.60 -1.16 0.85 0.20 0.73 3.44 -0.29 5.99 -1.35 7.65 -3.17 0.23 -0.25 0.28 -0.53 0.17 -0.85 -0.30 -0.86 -1.38 -1.90 -3.24 -3.12 Z M 177.26 145.65 c -0.96 -0.99 -1.64 -1.57 -2.04 -1.72 -0.31 -0.12 -0.59 -0.06 -0.83 0.17 -1.10 1.08 -2.39 2.05 -3.86 2.93 -0.45 0.27 -0.41 0.43 0.11 0.48 1.59 0.17 2.95 0.49 4.09 0.98 0.31 0.13 0.57 0.07 0.78 -0.18 0.51 -0.58 1.04 -1.05 1.60 -1.42 0.56 -0.35 0.61 -0.77 0.15 -1.24 Z"/>
<path fill="rgb(181,169,152)" fill-opacity="1.000" d="M 82.25 8.04 c 1.31 -0.23 2.07 0.00 2.29 0.71 -0.49 0.50 -0.50 1.25 -0.04 2.25 0.09 0.60 -0.10 0.70 -0.56 0.31 -0.91 -0.76 -1.48 -1.85 -1.69 -3.27 Z"/>
<path fill="rgb(114,109,81)" fill-opacity="1.000" d="M 77.54 10.71 c 1.79 3.08 3.11 5.50 3.96 7.25 -0.63 0.03 -0.88 0.44 -0.76 1.20 0.09 0.61 0.29 1.19 0.61 1.72 3.64 5.91 7.17 10.97 10.59 15.18 6.15 7.76 13.42 13.90 21.81 18.44 0.14 0.07 0.24 -0.09 0.29 -0.50 3.31 1.84 5.21 4.17 5.71 7.00 0.88 4.98 1.73 9.98 2.54 15.00 3.80 1.67 7.70 3.26 11.71 4.79 0.04 0.27 0.06 0.40 0.06 0.40 5.68 -1.09 11.89 -2.11 18.63 -3.06 0.33 -0.05 0.66 -0.03 0.98 0.04 2.69 0.61 5.28 1.91 7.77 3.89 0.38 0.31 0.99 0.22 1.81 -0.27 1.23 0.92 2.63 2.11 4.20 3.56 0.24 0.23 0.53 0.35 0.86 0.39 1.74 0.16 3.10 0.72 4.08 1.66 0.24 0.23 0.31 0.51 0.22 0.83 -0.63 2.16 -2.45 4.37 -5.45 6.64 -0.21 0.15 -0.40 0.14 -0.58 -0.04 -2.77 -3.06 -5.74 -5.73 -8.89 -8.02 -2.37 -1.71 -5.51 -1.97 -9.44 -0.77 -2.68 -0.51 -4.78 -0.13 -6.31 1.15 -0.29 0.23 -0.12 0.77 0.50 1.62 0.43 0.62 0.10 1.17 -1.00 1.65 -0.33 0.11 -0.42 0.33 -0.30 0.65 0.61 1.41 1.42 3.02 2.42 4.83 2.30 4.14 5.61 6.32 9.94 6.54 0.33 0.01 0.66 0.06 0.98 0.14 2.10 0.54 4.10 -0.24 6.02 -2.33 1.95 -0.54 2.45 -0.21 1.50 1.00 -1.55 0.54 -2.90 1.75 -4.06 3.65 -0.12 0.19 -1.54 -0.18 -4.25 -1.13 -3.21 -1.11 -6.14 -0.57 -8.80 1.62 -0.26 0.21 -0.52 0.21 -0.77 -0.01 -2.81 -2.40 -6.58 -4.30 -11.30 -5.69 -0.72 -0.22 -1.42 -0.17 -2.10 0.15 -0.19 0.15 -0.10 0.27 0.28 0.37 1.61 0.30 3.03 0.88 4.25 1.75 0.53 0.38 0.37 0.55 -0.50 0.50 -2.42 -0.62 -4.67 -0.70 -6.75 -0.25 -0.81 0.18 -1.55 0.80 -2.22 1.86 -0.36 0.46 -0.73 0.47 -1.12 0.05 -6.22 -6.71 -13.17 -12.45 -20.85 -17.22 -1.30 -0.81 -2.58 -1.44 -3.83 -1.88 -0.82 -0.22 -0.88 -0.09 -0.17 0.38 4.08 2.61 7.95 5.40 11.63 8.37 0.76 0.62 0.96 0.93 0.62 0.94 -0.33 -0.04 -0.63 -0.16 -0.90 -0.36 -9.43 -7.05 -20.19 -11.38 -32.25 -12.97 -0.40 -0.05 -0.61 0.12 -0.63 0.53 -0.11 2.17 -0.08 3.67 0.07 4.49 0.06 0.33 -0.07 0.56 -0.38 0.68 -0.18 0.07 -0.35 -0.37 -0.53 -1.31 -0.22 -1.13 -0.51 -1.70 -0.88 -1.72 -0.33 -0.02 -0.48 0.14 -0.44 0.47 0.18 1.64 0.80 3.92 1.87 6.84 0.20 0.53 0.03 0.70 -0.50 0.50 -5.00 -1.80 -10.25 -3.30 -15.74 -4.49 -0.57 -0.12 -0.90 0.11 -0.98 0.69 -0.66 4.87 -0.67 9.83 -0.02 14.90 0.50 3.89 0.65 5.95 0.44 6.19 -0.43 0.40 -0.66 0.42 -0.69 0.06 -0.27 -3.39 -0.84 -5.97 -1.72 -7.74 -0.14 -0.30 -0.22 -0.28 -0.22 0.05 -0.04 6.85 0.87 13.73 2.73 20.64 0.13 0.47 -0.04 0.63 -0.51 0.48 -0.61 -0.16 -1.26 -0.49 -1.97 -0.99 -2.43 -1.75 -4.86 -2.99 -7.27 -3.73 -0.32 -0.10 -0.35 -0.04 -0.10 0.18 1.14 0.99 1.89 1.84 2.25 2.55 0.33 0.65 -0.54 0.23 -2.63 -1.25 -1.70 -1.27 -3.28 -1.56 -4.75 -0.88 -4.52 2.38 -8.89 5.33 -13.12 8.88 -0.24 0.19 -0.38 0.13 -0.44 -0.19 2.58 -3.49 5.27 -6.60 8.08 -9.34 0.24 -0.23 0.26 -0.49 0.07 -0.76 0.01 0.01 -0.23 0.19 -0.71 0.54 -4.90 3.38 -9.36 7.01 -13.38 10.87 -0.35 0.34 -0.71 0.47 -1.06 0.40 3.67 -7.10 7.96 -13.57 12.87 -19.39 0.21 -0.26 0.38 -0.54 0.50 -0.85 0.33 -0.83 0.10 -0.84 -0.68 -0.03 -3.16 3.42 -6.56 6.94 -10.19 10.56 -0.60 0.60 -1.06 1.17 -1.39 1.72 -0.11 0.31 -0.31 0.56 -0.58 0.76 -0.54 0.39 -0.61 0.25 -0.22 -0.42 7.49 -12.80 16.91 -23.63 28.25 -32.50 0.22 -0.17 0.35 -0.12 0.41 0.15 0.60 2.83 1.61 6.09 3.04 9.76 0.12 0.31 0.16 0.30 0.12 -0.03 -1.56 -13.47 -1.69 -26.86 -0.38 -40.19 1.31 -13.32 4.75 -25.73 10.34 -37.24 0.15 -0.30 0.38 -0.50 0.69 -0.61 0.09 -0.03 0.02 0.27 -0.22 0.91 -2.56 7.56 -4.60 15.60 -6.12 24.13 -0.17 0.94 -0.25 1.37 -0.25 1.31 0.33 -0.04 0.56 -0.22 0.69 -0.53 0.92 -2.57 1.79 -5.48 2.62 -8.72 0.10 -0.40 0.34 -0.74 0.71 -1.00 0.18 1.75 0.03 3.34 -0.46 4.75 -1.55 4.45 -2.38 8.78 -2.49 13.00 -0.01 0.33 -0.03 0.67 -0.08 1.00 -1.19 8.10 -0.48 15.99 2.13 23.69 0.15 0.44 0.38 0.30 0.69 -0.44 0.25 -0.73 0.17 -4.31 -0.25 -10.75 -0.51 -7.38 -0.26 -15.38 0.75 -24.00 0.31 -2.59 0.84 -5.18 1.61 -7.77 0.09 -0.32 0.05 -0.62 -0.13 -0.90 -0.05 -0.06 -0.47 -0.17 -1.27 -0.33 2.61 -8.53 6.08 -16.62 10.41 -24.29 0.22 -0.39 0.44 -0.39 0.67 0.00 Z M 111.21 68.75 c -0.07 -4.65 -1.70 -8.75 -4.90 -12.31 -6.75 -7.53 -13.01 -14.92 -18.77 -22.19 -4.57 -5.75 -8.25 -11.83 -11.02 -18.24 -0.17 -0.39 -0.35 -0.40 -0.55 -0.02 -1.49 2.54 -2.62 5.31 -3.41 8.32 -2.43 9.31 -3.53 19.04 -3.31 29.19 0.08 8.39 0.64 16.76 1.66 25.13 0.05 0.35 0.23 0.44 0.53 0.26 3.39 -1.89 6.72 -3.79 10.00 -5.70 3.72 -2.17 7.32 -3.82 10.81 -4.94 0.89 -0.27 2.80 -0.27 5.75 0.00 4.25 0.38 8.43 0.94 12.56 1.69 0.79 0.14 1.00 -0.26 0.65 -1.19 Z M 165.06 85.19 c -0.84 -0.70 -1.69 -1.18 -2.56 -1.44 -1.94 -0.59 -3.97 -1.51 -6.07 -2.75 -0.29 -0.17 -0.59 -0.20 -0.91 -0.11 -2.97 0.84 -6.05 1.92 -9.25 3.23 -0.30 0.13 -0.52 0.35 -0.65 0.65 -0.12 0.30 0.26 0.37 1.13 0.23 1.68 -0.28 3.17 -0.56 4.48 -0.82 2.48 -0.48 4.74 0.04 6.77 1.56 1.60 1.26 3.16 2.70 4.69 4.32 1.28 1.35 2.67 2.40 4.18 3.14 0.30 0.16 0.58 0.14 0.84 -0.07 1.02 -0.78 1.79 -1.66 2.29 -2.63 0.16 -0.30 -1.49 -2.07 -4.94 -5.31 Z"/>
<path fill="rgb(45,51,39)" fill-opacity="1.000" d="M 75.97 15.99 c 0.20 -0.38 0.38 -0.37 0.55 0.02 2.77 6.41 6.45 12.49 11.02 18.24 -0.54 0.48 -1.03 0.46 -1.48 -0.06 -3.18 -3.74 -6.06 -7.74 -8.64 -12.01 -0.48 -0.75 -0.82 -0.70 -1.05 0.16 -1.82 5.91 -2.86 11.38 -3.12 16.41 -0.36 6.80 -0.29 12.64 0.20 17.50 0.03 0.33 0.12 0.65 0.26 0.95 0.34 0.74 0.66 0.57 0.98 -0.51 0.64 -2.20 1.36 -4.12 2.15 -5.76 1.14 -1.90 2.77 -2.57 4.91 -2.00 3.26 0.87 6.22 2.53 8.88 4.98 0.25 0.23 0.39 0.51 0.43 0.84 0.01 0.15 -0.23 0.13 -0.75 -0.06 -2.54 -0.95 -4.92 -1.66 -7.12 -2.13 -1.42 -0.29 -2.42 0.22 -3.01 1.54 -1.25 2.82 -2.08 6.44 -2.46 10.86 -0.07 0.82 0.24 1.01 0.94 0.59 2.41 -1.44 4.65 -2.53 6.74 -3.26 0.54 -0.19 0.63 -0.06 0.29 0.40 -0.64 0.75 -1.60 1.63 -2.88 2.62 -1.27 0.99 -1.23 1.40 0.14 1.21 0.32 -0.06 0.63 -0.16 0.93 -0.33 4.04 -2.25 8.39 -2.87 13.06 -1.88 4.26 0.91 7.42 1.99 9.50 3.25 1.37 0.84 2.96 1.23 4.77 1.19 0.35 0.93 0.14 1.33 -0.65 1.19 -4.13 -0.75 -8.31 -1.31 -12.56 -1.69 -2.95 -0.27 -4.86 -0.27 -5.75 0.00 -3.49 1.12 -7.09 2.77 -10.81 4.94 -3.28 1.91 -6.61 3.81 -10.00 5.70 -0.30 0.18 -0.48 0.09 -0.53 -0.26 -1.02 -8.37 -1.58 -16.74 -1.66 -25.13 -0.22 -10.15 0.88 -19.88 3.31 -29.19 0.79 -3.01 1.92 -5.78 3.41 -8.32 Z"/>
<path fill="rgb(73,71,54)" fill-opacity="1.000" d="M 96.94 17.33 c 2.83 4.60 6.09 9.08 9.77 13.42 -1.54 -0.50 -2.45 -0.48 -2.73 0.06 -0.15 0.29 -0.15 0.59 0.01 0.88 0.83 1.49 2.34 3.27 4.51 5.35 4.24 5.17 9.55 10.67 15.94 16.52 1.91 1.75 3.07 3.82 3.47 6.20 0.06 0.33 0.17 0.64 0.32 0.93 0.56 1.07 0.48 2.58 -0.23 4.52 -1.76 0.34 -2.45 -0.50 -2.06 -2.52 0.37 -1.95 -0.25 -3.56 -1.86 -4.82 -0.26 -0.21 -0.47 -0.46 -0.61 -0.76 -0.80 -1.61 -2.14 -3.21 -4.03 -4.80 -5.29 -4.44 -9.74 -8.73 -13.38 -12.87 -2.22 -2.53 -3.39 -4.61 -3.50 -6.25 -0.25 -1.98 -1.00 -3.89 -2.25 -5.75 -0.55 -0.82 -0.92 -1.14 -1.12 -0.95 -0.25 0.21 -0.32 0.48 -0.20 0.79 0.60 1.59 0.84 3.14 0.73 4.66 -0.02 0.33 -0.18 0.42 -0.47 0.25 -2.03 -1.08 -3.12 -2.89 -3.25 -5.44 -0.18 -3.54 -0.08 -6.63 0.32 -9.28 0.08 -0.64 0.28 -0.69 0.62 -0.14 Z"/>
<path fill="rgb(181,169,152)" fill-opacity="1.000" d="M 81.50 17.96 c 0.60 1.35 1.29 2.59 2.06 3.73 5.56 8.14 12.44 15.95 20.63 23.41 0.25 0.23 0.49 0.46 0.71 0.70 3.01 3.22 6.05 5.95 9.14 8.20 -0.05 0.41 -0.15 0.57 -0.29 0.50 -8.39 -4.54 -15.66 -10.68 -21.81 -18.44 -3.42 -4.21 -6.95 -9.27 -10.59 -15.18 -0.32 -0.53 -0.52 -1.11 -0.61 -1.72 -0.12 -0.76 0.13 -1.17 0.76 -1.20 Z"/>
<path fill="rgb(73,71,54)" fill-opacity="1.000" d="M 77.42 22.18 c 2.58 4.27 5.46 8.27 8.64 12.01 0.45 0.52 0.94 0.54 1.48 0.06 5.76 7.27 12.02 14.66 18.77 22.19 3.20 3.56 4.83 7.66 4.90 12.31 -1.81 0.04 -3.40 -0.35 -4.77 -1.19 -2.08 -1.26 -5.24 -2.34 -9.50 -3.25 -4.67 -0.99 -9.02 -0.37 -13.06 1.88 -0.30 0.17 -0.61 0.27 -0.93 0.33 -1.37 0.19 -1.41 -0.22 -0.14 -1.21 1.28 -0.99 2.24 -1.87 2.88 -2.62 0.34 -0.46 0.25 -0.59 -0.29 -0.40 -2.09 0.73 -4.33 1.82 -6.74 3.26 -0.70 0.42 -1.01 0.23 -0.94 -0.59 0.38 -4.42 1.21 -8.04 2.46 -10.86 0.59 -1.32 1.59 -1.83 3.01 -1.54 2.20 0.47 4.58 1.18 7.12 2.13 0.52 0.19 0.76 0.21 0.75 0.06 -0.04 -0.33 -0.18 -0.61 -0.43 -0.84 -2.66 -2.45 -5.62 -4.11 -8.88 -4.98 -2.14 -0.57 -3.77 0.10 -4.91 2.00 -0.79 1.64 -1.51 3.56 -2.15 5.76 -0.32 1.08 -0.64 1.25 -0.98 0.51 -0.14 -0.30 -0.23 -0.62 -0.26 -0.95 -0.49 -4.86 -0.56 -10.70 -0.20 -17.50 0.26 -5.03 1.30 -10.50 3.12 -16.41 0.23 -0.86 0.57 -0.91 1.05 -0.16 Z"/>
<path fill="rgb(94,91,68)" fill-opacity="1.000" d="M 106.71 30.75 c 2.21 2.36 4.40 4.86 6.58 7.50 -0.94 0.08 -1.89 -0.23 -2.85 -0.94 -0.78 -0.57 -1.42 -0.66 -1.94 -0.27 -2.17 -2.08 -3.68 -3.86 -4.51 -5.35 -0.16 -0.29 -0.16 -0.59 -0.01 -0.88 0.28 -0.54 1.19 -0.56 2.73 -0.06 Z"/>
<path fill="rgb(181,169,152)" fill-opacity="1.000" d="M 66.46 35.00 c 0.80 0.16 1.22 0.27 1.27 0.33 0.18 0.28 0.22 0.58 0.13 0.90 -0.77 2.59 -1.30 5.18 -1.61 7.77 -1.01 8.62 -1.26 16.62 -0.75 24.00 0.42 6.44 0.50 10.02 0.25 10.75 -0.31 0.74 -0.54 0.88 -0.69 0.44 -2.61 -7.70 -3.32 -15.59 -2.13 -23.69 0.05 -0.33 0.07 -0.67 0.08 -1.00 0.11 -4.22 0.94 -8.55 2.49 -13.00 0.49 -1.41 0.64 -3.00 0.46 -4.75 0.17 -0.96 0.33 -1.54 0.50 -1.75 Z"/>
<path fill="rgb(114,109,81)" fill-opacity="1.000" d="M 110.44 37.31 c 0.96 0.71 1.91 1.02 2.85 0.94 3.67 4.49 7.72 8.76 12.15 12.81 4.47 4.10 6.35 8.84 5.64 14.20 -0.05 0.33 -0.22 0.58 -0.50 0.75 -0.45 0.28 -1.31 0.01 -2.58 -0.80 0.71 -1.94 0.79 -3.45 0.23 -4.52 -0.15 -0.29 -0.26 -0.60 -0.32 -0.93 -0.40 -2.38 -1.56 -4.45 -3.47 -6.20 -6.39 -5.85 -11.70 -11.35 -15.94 -16.52 0.52 -0.39 1.16 -0.30 1.94 0.27 Z"/>
<path fill="rgb(248,242,228)" fill-opacity="1.000" d="M 54.00 45.79 c -0.05 1.61 -0.48 4.02 -1.29 7.21 -0.38 0.10 -0.55 -0.23 -0.50 -1.00 0.24 -2.30 0.24 -4.30 0.00 -6.00 0.35 -0.29 0.95 -0.36 1.79 -0.21 Z"/>
<path fill="rgb(181,169,152)" fill-opacity="1.000" d="M 52.21 52.00 c -0.05 0.77 0.12 1.10 0.50 1.00 0.06 1.10 -0.01 2.18 -0.21 3.25 -0.33 0.49 -0.55 0.39 -0.69 -0.31 -0.25 -1.32 -0.11 -2.64 0.40 -3.94 Z"/>
<path fill="rgb(240,224,198)" fill-opacity="1.000" d="M 136.25 59.96 c 0.25 0.06 0.50 0.06 0.75 0.00 0.30 0.62 0.19 1.72 -0.34 3.31 -0.33 0.97 -0.54 0.95 -0.65 -0.07 -0.15 -1.47 -0.07 -2.55 0.24 -3.24 Z"/>
<path fill="rgb(181,169,152)" fill-opacity="1.000" d="M 48.04 66.25 c 0.22 0.00 0.45 0.00 0.67 0.00 0.49 1.62 0.50 2.45 0.04 2.50 -0.65 0.07 -0.88 -0.77 -0.71 -2.50 Z"/>
<path fill="rgb(73,71,54)" fill-opacity="1.000" d="M 124.16 70.24 c 5.08 0.45 9.87 1.87 14.37 4.25 0.55 0.29 0.63 0.68 0.23 1.16 -1.17 1.34 -2.52 2.69 -4.07 4.04 -0.37 0.32 -0.26 0.52 0.31 0.60 -0.29 0.15 -0.63 0.32 -1.00 0.50 -4.01 -1.53 -7.91 -3.12 -11.71 -4.79 0.32 0.05 0.47 -0.11 0.46 -0.50 -0.04 -1.40 0.15 -2.94 0.56 -4.64 0.10 -0.45 0.39 -0.66 0.85 -0.62 Z"/>
<path fill="rgb(181,169,152)" fill-opacity="1.000" d="M 152.21 75.26 c 0.55 -0.14 1.09 -0.08 1.60 0.18 3.22 1.65 6.36 3.76 9.44 6.35 -0.82 0.49 -1.43 0.58 -1.81 0.27 -2.49 -1.98 -5.08 -3.28 -7.77 -3.89 -0.32 -0.07 -0.65 -0.09 -0.98 -0.04 -6.74 0.95 -12.95 1.97 -18.63 3.06 0.00 0.00 -0.02 -0.13 -0.06 -0.40 0.37 -0.18 0.71 -0.35 1.00 -0.50 6.01 -1.93 11.75 -3.61 17.21 -5.03 Z"/>
<path fill="rgb(73,71,54)" fill-opacity="1.000" d="M 156.43 81.00 c 2.10 1.24 4.13 2.16 6.07 2.75 0.87 0.26 1.72 0.74 2.56 1.44 3.45 3.24 5.10 5.01 4.94 5.31 -0.50 0.97 -1.27 1.85 -2.29 2.63 -0.26 0.21 -0.54 0.23 -0.84 0.07 -1.51 -0.74 -2.90 -1.79 -4.18 -3.14 -1.53 -1.62 -3.09 -3.06 -4.69 -4.32 -2.03 -1.52 -4.29 -2.04 -6.77 -1.56 -1.31 0.26 -2.80 0.54 -4.48 0.82 -0.87 0.14 -1.25 0.07 -1.13 -0.23 0.13 -0.30 0.35 -0.52 0.65 -0.65 3.20 -1.31 6.28 -2.39 9.25 -3.23 0.32 -0.09 0.62 -0.06 0.91 0.11 Z"/>
<path fill="rgb(73,71,54)" fill-opacity="1.000" d="M 78.91 81.42 c 12.06 1.59 22.82 5.92 32.25 12.97 0.27 0.20 0.57 0.32 0.90 0.36 0.34 -0.01 0.14 -0.32 -0.62 -0.94 -3.68 -2.97 -7.55 -5.76 -11.63 -8.37 -0.71 -0.47 -0.65 -0.60 0.17 -0.38 1.25 0.44 2.53 1.07 3.83 1.88 7.68 4.77 14.63 10.51 20.85 17.22 0.39 0.42 0.76 0.41 1.12 -0.05 0.67 -1.06 1.41 -1.68 2.22 -1.86 2.08 -0.45 4.33 -0.37 6.75 0.25 0.87 0.05 1.03 -0.12 0.50 -0.50 -1.22 -0.87 -2.64 -1.45 -4.25 -1.75 -0.38 -0.10 -0.47 -0.22 -0.28 -0.37 0.68 -0.32 1.38 -0.37 2.10 -0.15 4.72 1.39 8.49 3.29 11.30 5.69 0.25 0.22 0.51 0.22 0.77 0.01 2.66 -2.19 5.59 -2.73 8.80 -1.62 2.71 0.95 4.13 1.32 4.25 1.13 1.16 -1.90 2.51 -3.11 4.06 -3.65 -0.45 1.30 -0.51 1.94 -0.19 1.90 1.87 -0.22 3.06 -1.09 3.57 -2.62 0.49 -1.18 1.35 -1.62 2.59 -1.33 1.18 0.19 2.29 0.51 3.34 0.95 0.53 0.22 0.81 0.32 0.85 0.29 0.18 -0.28 0.14 -0.51 -0.13 -0.71 -0.70 -0.49 -1.26 -0.96 -1.69 -1.41 -0.23 -0.24 -0.27 -0.51 -0.13 -0.81 0.37 -0.77 1.11 -1.01 2.23 -0.74 3.29 0.81 6.37 2.25 9.22 4.33 0.27 0.20 0.56 0.35 0.88 0.46 3.10 0.97 6.28 2.66 9.52 5.09 0.53 0.39 1.09 0.75 1.69 1.06 1.56 0.48 2.79 1.39 3.71 2.75 -2.17 0.04 -3.80 -0.66 -4.91 -2.10 -0.20 -0.27 -0.46 -0.46 -0.77 -0.58 -3.70 -1.46 -7.57 -3.38 -11.59 -5.76 -1.51 -0.89 -3.06 -1.31 -4.63 -1.25 -0.36 0.01 0.43 0.59 2.38 1.75 2.94 1.76 5.77 3.62 8.47 5.58 0.27 0.20 0.47 0.45 0.61 0.75 0.12 0.27 -0.06 0.30 -0.52 0.11 -3.89 -1.63 -7.33 -3.45 -10.34 -5.47 -0.27 -0.19 -0.58 -0.28 -0.91 -0.29 -0.65 -0.02 -0.69 0.30 -0.14 0.94 0.22 0.26 0.47 0.46 0.76 0.63 2.86 1.66 5.22 3.34 7.08 5.04 0.24 0.23 0.53 0.33 0.86 0.30 0.32 -0.03 0.37 0.42 0.15 1.35 -1.93 -0.67 -3.60 -1.40 -5.02 -2.19 -2.89 -1.60 -6.04 -3.04 -9.44 -4.31 -0.95 -0.34 -1.43 0.00 -1.44 1.01 -0.02 1.37 -0.43 2.63 -1.22 3.76 -0.15 0.22 -0.35 0.29 -0.60 0.21 -3.36 -1.18 -6.77 -2.09 -10.24 -2.73 -3.31 -0.61 -6.60 -0.12 -9.86 1.48 -0.30 0.14 -0.62 0.18 -0.95 0.14 -2.04 -0.30 -4.37 -0.95 -6.97 -1.95 -1.80 -0.69 -3.65 -0.93 -5.57 -0.72 -3.40 0.39 -5.73 1.89 -6.99 4.52 -0.33 0.69 -0.77 0.77 -1.32 0.23 -1.88 -1.85 -3.72 -3.43 -5.53 -4.76 -4.08 -3.00 -6.51 -4.56 -7.31 -4.69 -1.16 -0.16 -2.30 -0.60 -3.44 -1.31 -5.63 -3.54 -11.24 -6.43 -16.81 -8.69 -2.47 -1.00 -4.41 -1.01 -5.84 -0.03 -0.27 0.19 -0.38 0.44 -0.31 0.77 0.34 1.72 1.40 3.31 3.20 4.76 0.26 0.21 0.43 0.47 0.51 0.79 0.15 0.57 -0.53 0.72 -2.06 0.46 -4.25 -0.73 -7.97 -0.83 -11.17 -0.29 -0.95 0.19 -1.37 0.76 -1.28 1.72 1.20 12.08 3.83 23.20 7.89 33.38 0.84 2.12 1.49 4.22 1.95 6.30 0.08 0.32 0.28 0.45 0.60 0.36 1.13 -0.35 1.72 -0.17 1.76 0.53 -0.03 2.58 0.41 5.06 1.31 7.44 0.33 0.84 0.56 0.70 0.69 -0.44 -0.29 -3.85 -0.52 -7.66 -0.69 -11.44 -0.10 -2.38 0.05 -4.42 0.47 -6.11 0.33 -1.63 0.67 -1.63 1.03 -0.01 0.30 1.31 0.52 2.47 0.68 3.50 0.05 0.33 0.15 0.65 0.30 0.94 1.15 2.19 1.88 4.38 2.20 6.56 0.05 0.33 0.13 0.65 0.25 0.97 4.37 11.41 9.39 21.92 15.07 31.53 0.93 1.56 1.48 1.44 1.67 -0.37 0.20 -1.97 0.44 -3.85 0.73 -5.63 0.24 -1.46 0.57 -1.48 1.00 -0.07 2.02 6.83 4.84 12.81 8.48 17.94 0.19 0.28 0.35 0.17 0.48 -0.32 0.05 -0.33 0.03 -0.65 -0.08 -0.96 -0.61 -1.78 -1.39 -3.74 -2.33 -5.88 -0.13 -0.31 -0.09 -0.59 0.11 -0.86 0.07 -0.09 0.20 0.06 0.38 0.46 0.47 0.55 0.91 1.20 1.31 1.94 4.32 7.93 9.28 15.10 14.88 21.51 1.01 1.12 0.77 1.62 -0.73 1.51 -4.39 -0.31 -8.79 -0.32 -13.19 -0.05 -1.04 0.06 -1.17 -0.24 -0.38 -0.93 1.09 -0.96 2.18 -1.96 3.27 -3.01 0.51 -0.50 0.56 -1.04 0.12 -1.61 -5.94 -7.99 -12.89 -15.76 -20.84 -23.30 -16.12 -15.28 -33.78 -28.82 -52.99 -40.59 -1.93 -1.19 -3.93 -1.31 -5.99 -0.34 -6.69 3.40 -13.37 6.67 -20.02 9.81 -0.58 0.27 -0.79 0.14 -0.63 -0.38 2.02 -2.22 4.66 -4.19 7.94 -5.89 0.29 -0.16 0.52 -0.38 0.69 -0.67 0.39 -0.67 0.08 -0.84 -0.94 -0.50 -3.03 1.00 -6.28 2.55 -9.75 4.67 -0.78 0.41 -0.96 0.23 -0.55 -0.55 1.77 -3.31 3.53 -6.70 5.30 -10.16 0.35 0.07 0.71 -0.06 1.06 -0.40 4.02 -3.86 8.48 -7.49 13.38 -10.87 0.48 -0.35 0.72 -0.53 0.71 -0.54 0.19 0.27 0.17 0.53 -0.07 0.76 -2.81 2.74 -5.50 5.85 -8.08 9.34 0.06 0.32 0.20 0.38 0.44 0.19 4.23 -3.55 8.60 -6.50 13.12 -8.88 1.47 -0.68 3.05 -0.39 4.75 0.88 2.09 1.48 2.96 1.90 2.63 1.25 -0.36 -0.71 -1.11 -1.56 -2.25 -2.55 -0.25 -0.22 -0.22 -0.28 0.10 -0.18 2.41 0.74 4.84 1.98 7.27 3.73 0.71 0.50 1.36 0.83 1.97 0.99 0.47 0.15 0.64 -0.01 0.51 -0.48 -1.86 -6.91 -2.77 -13.79 -2.73 -20.64 0.00 -0.33 0.08 -0.35 0.22 -0.05 0.88 1.77 1.45 4.35 1.72 7.74 0.03 0.36 0.26 0.34 0.69 -0.06 0.21 -0.24 0.06 -2.30 -0.44 -6.19 -0.65 -5.07 -0.64 -10.03 0.02 -14.90 0.08 -0.58 0.41 -0.81 0.98 -0.69 5.49 1.19 10.74 2.69 15.74 4.49 0.53 0.20 0.70 0.03 0.50 -0.50 -1.07 -2.92 -1.69 -5.20 -1.87 -6.84 -0.04 -0.33 0.11 -0.49 0.44 -0.47 0.37 0.02 0.66 0.59 0.88 1.72 0.18 0.94 0.35 1.38 0.53 1.31 0.31 -0.12 0.44 -0.35 0.38 -0.68 -0.15 -0.82 -0.18 -2.32 -0.07 -4.49 0.02 -0.41 0.23 -0.58 0.63 -0.53 Z"/>
<path fill="rgb(73,71,54)" fill-opacity="1.000" d="M 148.25 86.04 c -0.29 0.54 -0.32 0.92 -0.11 1.12 0.24 0.23 0.40 0.50 0.47 0.83 0.42 1.84 1.07 3.69 1.93 5.56 0.14 0.30 0.11 0.58 -0.10 0.84 -0.08 0.10 -0.48 -0.20 -1.19 -0.89 -0.98 -0.96 -1.60 -1.31 -1.87 -1.08 -0.25 0.22 -0.29 0.47 -0.11 0.75 1.15 1.83 2.77 3.41 4.87 4.75 0.28 0.18 0.48 0.43 0.58 0.74 0.42 1.26 1.43 2.01 3.04 2.26 0.33 0.05 0.65 0.03 0.96 -0.08 0.80 -0.27 2.06 -0.45 3.78 -0.55 -1.92 2.09 -3.92 2.87 -6.02 2.33 -0.32 -0.08 -0.65 -0.13 -0.98 -0.14 -4.33 -0.22 -7.64 -2.40 -9.94 -6.54 -1.00 -1.81 -1.81 -3.42 -2.42 -4.83 -0.12 -0.32 -0.03 -0.54 0.30 -0.65 1.10 -0.48 1.43 -1.03 1.00 -1.65 -0.62 -0.85 -0.79 -1.39 -0.50 -1.62 1.53 -1.28 3.63 -1.66 6.31 -1.15 Z"/>
<path fill="rgb(153,26,35)" fill-opacity="1.000" d="M 152.33 87.26 c 2.67 0.24 4.70 1.51 6.11 3.80 0.30 0.50 0.24 0.91 -0.19 1.23 -1.44 -0.81 -2.85 -1.40 -4.25 -1.79 -0.77 -0.21 -1.29 -0.05 -1.54 0.50 -1.30 0.11 -1.85 -0.72 -1.65 -2.49 0.10 -0.92 0.61 -1.33 1.52 -1.25 Z"/>
<path fill="rgb(254,254,253)" fill-opacity="1.000" d="M 154.00 90.50 c 1.40 0.39 2.81 0.98 4.25 1.79 0.01 0.63 -0.13 1.19 -0.43 1.68 -0.50 0.82 -0.28 1.17 0.68 1.03 0.56 -0.08 0.99 -0.18 1.29 -0.31 0.31 -0.13 0.62 -0.14 0.94 -0.04 0.97 0.37 1.16 0.92 0.58 1.66 -0.90 1.24 -1.99 1.62 -3.25 1.13 -1.60 -0.81 -3.10 -1.98 -4.50 -3.50 -0.73 -0.79 -1.09 -1.77 -1.10 -2.94 0.25 -0.55 0.77 -0.71 1.54 -0.50 Z"/>
<path fill="rgb(254,254,253)" fill-opacity="1.000" d="M 98.19 99.81 c 3.80 2.06 7.32 3.88 10.56 5.48 0.89 1.05 2.06 1.87 3.50 2.46 0.28 0.12 0.70 -0.06 1.25 -0.54 3.54 1.83 6.97 4.18 10.29 7.04 0.05 0.93 -0.22 1.26 -0.79 1.00 -2.68 -1.24 -5.34 -2.57 -8.00 -4.00 -1.53 -0.82 -3.20 -1.02 -5.01 -0.61 -0.33 0.07 -0.64 0.05 -0.95 -0.08 -2.99 -1.19 -6.07 -2.40 -9.23 -3.62 -2.62 -1.02 -4.04 -1.40 -4.25 -1.13 -0.39 0.51 -0.22 0.89 0.50 1.13 7.18 2.38 10.80 3.92 10.88 4.62 0.00 0.83 -0.54 1.04 -1.63 0.63 -4.19 -1.57 -8.17 -3.04 -11.94 -4.40 -0.61 -0.19 -0.85 0.03 -0.71 0.65 1.32 5.99 2.96 11.35 4.90 16.10 0.13 0.31 0.16 0.62 0.09 0.95 -0.38 1.89 -0.33 3.62 0.16 5.20 1.65 5.31 3.85 10.15 6.60 14.51 1.03 1.58 1.65 1.43 1.84 -0.45 0.15 -2.20 0.67 -4.27 1.56 -6.19 0.16 -0.35 0.30 -0.49 0.42 -0.44 0.30 0.13 0.40 0.35 0.30 0.67 -0.79 2.37 -0.78 5.17 0.03 8.40 0.24 0.95 0.58 1.23 1.01 0.83 0.24 -0.22 0.35 -0.50 0.32 -0.83 0.00 -1.50 0.12 -3.56 0.36 -6.19 0.04 -0.50 0.11 -0.78 0.20 -0.84 0.32 -0.07 0.49 0.07 0.49 0.40 0.04 2.99 0.16 6.06 0.35 9.19 -1.45 2.79 -2.61 5.81 -3.48 9.06 -0.25 0.96 -0.57 0.98 -0.95 0.07 -4.32 -10.32 -8.12 -20.36 -11.40 -30.13 -0.92 -4.19 -1.55 -6.26 -1.90 -6.19 -0.30 0.06 0.09 2.22 1.19 6.48 1.07 5.56 2.50 11.21 4.29 16.96 -0.07 0.19 -0.25 0.29 -0.54 0.29 -4.64 -10.75 -7.46 -21.01 -8.45 -30.79 -0.03 -0.33 -0.15 -0.37 -0.36 -0.10 -1.68 2.18 -3.42 5.18 -5.21 8.99 -0.14 0.29 -0.24 0.27 -0.30 -0.04 -1.11 -5.36 -1.93 -10.14 -2.47 -14.35 -0.04 -1.31 -0.03 -2.65 0.04 -4.00 0.09 -1.72 -0.40 -2.97 -1.46 -3.75 1.25 -0.85 3.16 -1.10 5.71 -0.75 5.63 0.77 11.20 2.27 16.72 4.50 0.31 0.12 0.35 0.07 0.11 -0.16 -1.83 -1.79 -3.55 -3.57 -5.16 -5.37 -1.09 -1.21 -0.91 -1.43 0.52 -0.66 Z M 94.56 120.56 c 0.03 -1.70 -0.54 -3.18 -1.72 -4.44 -0.23 -0.25 -0.32 -0.54 -0.29 -0.87 0.06 -0.48 0.04 -0.70 -0.04 -0.66 -0.30 0.15 -0.42 0.39 -0.35 0.71 0.36 1.81 1.08 3.58 2.17 5.33 0.15 0.24 0.23 0.22 0.23 -0.07 Z"/>
<path fill="rgb(114,109,81)" fill-opacity="1.000" d="M 175.56 100.81 c 1.57 -0.06 3.12 0.36 4.63 1.25 4.02 2.38 7.89 4.30 11.59 5.76 0.31 0.12 0.57 0.31 0.77 0.58 1.11 1.44 2.74 2.14 4.91 2.10 1.85 1.39 3.76 2.68 5.74 3.87 0.54 0.32 0.84 0.80 0.91 1.42 0.52 4.57 0.89 8.56 1.10 11.96 -4.95 -1.05 -9.50 -3.73 -13.65 -8.06 -1.16 -1.22 -2.44 -2.35 -3.81 -3.40 0.26 -0.11 0.28 -0.31 0.06 -0.60 -1.21 -1.67 -2.50 -3.06 -3.85 -4.19 0.22 -0.93 0.17 -1.38 -0.15 -1.35 -0.33 0.03 -0.62 -0.07 -0.86 -0.30 -1.86 -1.70 -4.22 -3.38 -7.08 -5.04 -0.29 -0.17 -0.54 -0.37 -0.76 -0.63 -0.55 -0.64 -0.51 -0.96 0.14 -0.94 0.33 0.01 0.64 0.10 0.91 0.29 3.01 2.02 6.45 3.84 10.34 5.47 0.46 0.19 0.64 0.16 0.52 -0.11 -0.14 -0.30 -0.34 -0.55 -0.61 -0.75 -2.70 -1.96 -5.53 -3.82 -8.47 -5.58 -1.95 -1.16 -2.74 -1.74 -2.38 -1.75 Z M 192.38 113.08 c -0.37 0.30 -0.01 0.96 1.06 1.98 3.21 3.08 6.30 5.08 9.26 6.01 0.33 0.08 0.55 -0.04 0.67 -0.35 0.16 -0.35 -0.45 -1.02 -1.81 -2.03 -0.91 -0.68 -1.29 -1.49 -1.14 -2.45 0.05 -0.33 -0.03 -0.62 -0.24 -0.88 -1.28 -1.55 -2.78 -2.90 -4.49 -4.05 -1.82 -1.22 -3.80 -2.09 -5.93 -2.62 -0.71 -0.17 -0.94 0.01 -0.67 0.55 0.15 0.30 0.37 0.53 0.67 0.68 1.26 0.66 2.17 1.46 2.73 2.40 0.17 0.29 0.14 0.54 -0.11 0.76 Z"/>
<path fill="rgb(181,169,152)" fill-opacity="1.000" d="M 80.29 102.25 c 1.06 0.78 1.55 2.03 1.46 3.75 -0.07 1.35 -0.08 2.69 -0.04 4.00 -1.38 -1.97 -1.85 -4.56 -1.42 -7.75 Z"/>
<path fill="rgb(114,109,81)" fill-opacity="1.000" d="M 113.50 107.21 c -0.55 0.48 -0.97 0.66 -1.25 0.54 -1.44 -0.59 -2.61 -1.41 -3.50 -2.46 1.72 -0.53 3.30 0.11 4.75 1.92 Z"/>
<path fill="rgb(240,224,198)" fill-opacity="1.000" d="M 95.56 105.81 c 0.21 -0.27 1.63 0.11 4.25 1.13 3.16 1.22 6.24 2.43 9.23 3.62 0.31 0.13 0.62 0.15 0.95 0.08 1.81 -0.41 3.48 -0.21 5.01 0.61 2.66 1.43 5.32 2.76 8.00 4.00 0.57 0.26 0.84 -0.07 0.79 -1.00 1.07 0.48 1.66 1.30 1.77 2.44 0.04 2.36 0.63 4.36 1.75 6.00 0.22 0.31 0.37 -0.08 0.44 -1.19 -0.37 -3.16 -0.06 -6.04 0.94 -8.63 0.37 -0.95 1.02 -1.64 1.95 -2.07 2.11 -0.95 4.55 -1.28 7.30 -0.99 4.76 0.47 9.38 1.84 13.87 4.13 0.64 0.32 0.94 0.51 0.91 0.57 0.14 -0.30 0.08 -0.54 -0.21 -0.72 -1.06 -0.67 -1.86 -1.36 -2.40 -2.08 -0.20 -0.26 -0.17 -0.50 0.10 -0.70 0.85 -0.64 2.03 -0.98 3.54 -1.01 7.06 -0.14 13.49 0.96 19.29 3.31 0.31 0.13 0.61 0.11 0.91 -0.04 0.11 -0.05 -0.12 -0.23 -0.70 -0.52 -2.05 -1.04 -3.05 -1.87 -3.00 -2.50 0.12 -1.54 0.54 -2.20 1.25 -2.00 5.43 1.56 10.85 4.24 16.25 8.04 1.37 1.05 2.65 2.18 3.81 3.40 4.15 4.33 8.70 7.01 13.65 8.06 -0.01 2.98 1.61 5.83 4.84 8.54 0.48 0.39 0.86 0.32 1.14 -0.23 1.01 -1.95 0.85 -3.39 -0.47 -4.33 -0.27 -0.19 -0.49 -0.44 -0.65 -0.73 -1.07 -1.90 -1.43 -4.05 -1.08 -6.44 0.05 -0.33 0.24 -0.52 0.57 -0.58 0.53 -0.08 1.16 0.28 1.88 1.08 1.45 1.63 2.47 3.61 3.06 5.94 0.18 0.54 -0.14 2.48 -0.94 5.81 -0.20 0.84 0.26 1.34 1.38 1.50 0.76 0.11 0.83 0.39 0.20 0.84 -1.28 0.91 -3.16 1.76 -5.64 2.56 -0.20 -1.55 -0.70 -2.36 -1.50 -2.42 -0.33 -0.03 -0.65 0.03 -0.96 0.16 -5.77 2.44 -12.04 3.12 -18.79 2.05 -1.11 -0.18 -1.86 -0.15 -2.24 0.08 -0.30 0.16 -0.33 0.35 -0.09 0.58 0.68 0.66 1.69 1.17 3.03 1.52 0.33 0.09 0.48 0.30 0.47 0.63 -0.02 0.52 0.09 1.07 0.33 1.65 -0.77 0.22 -1.42 0.21 -1.94 -0.02 -7.26 -3.07 -13.72 -6.94 -19.37 -11.63 -3.18 -2.63 -5.84 -5.55 -8.00 -8.75 -2.01 -2.69 -4.49 -4.12 -7.44 -4.27 -0.33 -0.03 -0.64 -0.13 -0.91 -0.32 -0.33 -0.23 -0.27 -0.38 0.16 -0.47 1.83 -0.16 4.42 -0.07 7.75 0.25 1.10 0.11 1.12 -0.08 0.06 -0.56 -3.72 -1.00 -7.57 -1.48 -11.56 -1.44 -1.42 0.02 -2.64 0.33 -3.66 0.95 -0.82 0.45 -0.79 0.82 0.10 1.11 4.02 1.19 7.69 3.52 11.00 7.00 3.20 3.37 6.11 6.28 8.72 8.71 0.62 0.53 0.97 1.21 1.03 2.03 0.20 2.46 -0.46 3.97 -1.97 4.53 -0.31 0.11 -0.63 0.12 -0.94 0.01 -7.39 -2.50 -14.98 -4.19 -22.78 -5.09 -2.63 -0.30 -4.22 -0.39 -4.75 -0.25 -1.30 0.33 -1.98 1.00 -2.04 2.00 -0.78 -0.16 -1.18 0.09 -1.21 0.75 -0.32 6.63 0.22 12.64 1.62 18.02 0.09 0.32 0.16 0.64 0.21 0.97 0.88 5.66 2.96 10.81 6.23 15.45 0.87 1.22 3.91 3.68 9.13 7.37 8.75 6.19 17.68 11.86 26.81 17.01 0.29 0.16 0.55 0.37 0.76 0.62 0.43 0.49 0.55 0.82 0.37 0.98 -0.25 0.22 -0.53 0.26 -0.83 0.11 -4.32 -2.18 -8.35 -3.89 -12.08 -5.12 -0.31 -0.11 -0.63 -0.13 -0.96 -0.08 -0.50 0.08 -0.23 0.36 0.80 0.86 8.69 4.16 16.90 9.27 24.65 15.32 0.71 0.56 1.31 1.22 1.80 1.98 0.14 0.22 -0.11 0.57 -0.76 1.05 -4.41 -2.96 -8.48 -5.07 -12.21 -6.32 -0.32 -0.10 -0.34 -0.07 -0.06 0.12 2.78 1.81 5.98 3.84 9.58 6.10 0.84 0.52 1.07 0.77 0.68 0.73 -0.33 0.05 -0.64 0.00 -0.93 -0.16 -7.83 -4.28 -16.08 -7.52 -24.76 -9.70 -0.32 -0.08 -0.63 -0.21 -0.92 -0.37 -13.83 -7.83 -25.77 -18.24 -35.82 -31.25 -0.40 -0.53 -0.57 -0.85 -0.51 -0.96 -0.32 0.06 -0.40 0.23 -0.23 0.51 5.05 8.19 10.88 15.42 17.49 21.70 1.81 1.72 3.81 3.38 6.00 5.00 0.81 0.54 0.98 0.72 0.50 0.55 -0.33 -0.04 -0.64 -0.14 -0.91 -0.33 -5.69 -3.59 -10.97 -8.16 -15.84 -13.72 -9.39 -10.80 -16.02 -23.01 -19.87 -36.63 -0.13 -0.45 -0.35 -0.64 -0.65 -0.56 -0.19 -3.13 -0.31 -6.20 -0.35 -9.19 0.00 -0.33 -0.17 -0.47 -0.49 -0.40 -0.09 0.06 -0.16 0.34 -0.20 0.84 -0.24 2.63 -0.36 4.69 -0.36 6.19 0.03 0.33 -0.08 0.61 -0.32 0.83 -0.43 0.40 -0.77 0.12 -1.01 -0.83 -0.81 -3.23 -0.82 -6.03 -0.03 -8.40 0.10 -0.32 0.00 -0.54 -0.30 -0.67 -0.12 -0.05 -0.26 0.09 -0.42 0.44 -0.89 1.92 -1.41 3.99 -1.56 6.19 -0.19 1.88 -0.81 2.03 -1.84 0.45 -2.75 -4.36 -4.95 -9.20 -6.60 -14.51 -0.49 -1.58 -0.54 -3.31 -0.16 -5.20 0.07 -0.33 0.04 -0.64 -0.09 -0.95 -1.94 -4.75 -3.58 -10.11 -4.90 -16.10 -0.14 -0.62 0.10 -0.84 0.71 -0.65 3.77 1.36 7.75 2.83 11.94 4.40 1.09 0.41 1.63 0.20 1.63 -0.63 -0.08 -0.70 -3.70 -2.24 -10.88 -4.62 -0.72 -0.24 -0.89 -0.62 -0.50 -1.13 Z"/>
<path fill="rgb(181,169,152)" fill-opacity="1.000" d="M 189.76 108.69 c 2.13 0.53 4.11 1.40 5.93 2.62 1.71 1.15 3.21 2.50 4.49 4.05 0.21 0.26 0.29 0.55 0.24 0.88 -0.15 0.96 0.23 1.77 1.14 2.45 1.36 1.01 1.97 1.68 1.81 2.03 -0.12 0.31 -0.34 0.43 -0.67 0.35 -2.96 -0.93 -6.05 -2.93 -9.26 -6.01 -1.07 -1.02 -1.43 -1.68 -1.06 -1.98 0.25 -0.22 0.28 -0.47 0.11 -0.76 -0.56 -0.94 -1.47 -1.74 -2.73 -2.40 -0.30 -0.15 -0.52 -0.38 -0.67 -0.68 -0.27 -0.54 -0.04 -0.72 0.67 -0.55 Z"/>
<path fill="rgb(240,224,198)" fill-opacity="1.000" d="M 25.46 109.76 c -0.80 1.58 -1.62 2.67 -2.46 3.28 -0.37 -0.14 -0.69 -0.23 -0.96 -0.29 0.92 -1.34 1.99 -2.40 3.22 -3.17 0.29 -0.18 0.35 -0.12 0.20 0.18 Z"/>
<path fill="rgb(248,242,228)" fill-opacity="1.000" d="M 92.51 114.59 c 0.08 -0.04 0.10 0.18 0.04 0.66 -0.03 0.33 0.06 0.62 0.29 0.87 1.18 1.26 1.75 2.74 1.72 4.44 0.00 0.29 -0.08 0.31 -0.23 0.07 -1.09 -1.75 -1.81 -3.52 -2.17 -5.33 -0.07 -0.32 0.05 -0.56 0.35 -0.71 Z"/>
<path fill="rgb(114,109,81)" fill-opacity="1.000" d="M 93.56 122.56 c 0.35 -0.07 0.98 2.00 1.90 6.19 -0.24 -0.01 -0.48 0.09 -0.71 0.29 -1.10 -4.26 -1.49 -6.42 -1.19 -6.48 Z"/>
<path fill="rgb(254,254,253)" fill-opacity="1.000" d="M 168.53 139.34 c 1.86 1.22 2.94 2.26 3.24 3.12 0.11 0.32 0.06 0.60 -0.17 0.85 -1.66 1.82 -4.21 2.88 -7.65 3.17 -1.36 0.12 -1.43 -0.13 -0.20 -0.73 2.78 -1.37 4.29 -3.46 4.55 -6.30 0.01 -0.16 0.09 -0.20 0.23 -0.11 Z"/>
<path fill="rgb(248,242,228)" fill-opacity="1.000" d="M 208.00 139.29 c 0.80 0.06 1.30 0.87 1.50 2.42 -2.52 1.10 -5.04 2.17 -7.56 3.23 -3.39 1.41 -7.46 1.75 -12.19 1.02 -0.24 -0.58 -0.35 -1.13 -0.33 -1.65 0.01 -0.33 -0.14 -0.54 -0.47 -0.63 -1.34 -0.35 -2.35 -0.86 -3.03 -1.52 -0.24 -0.23 -0.21 -0.42 0.09 -0.58 0.38 -0.23 1.13 -0.26 2.24 -0.08 6.75 1.07 13.02 0.39 18.79 -2.05 0.31 -0.13 0.63 -0.19 0.96 -0.16 Z"/>
<path fill="rgb(254,254,253)" fill-opacity="1.000" d="M 133.21 139.75 c 0.38 14.42 4.54 27.24 12.48 38.47 0.73 1.03 0.98 0.93 0.75 -0.32 -0.27 -0.42 -0.57 -1.16 -0.88 -2.21 -0.08 -0.27 0.13 -0.32 0.63 -0.13 1.53 1.19 2.91 2.16 4.14 2.93 0.28 0.17 0.58 0.20 0.89 0.09 0.14 -0.05 0.07 -0.16 -0.22 -0.33 -0.80 -0.48 -1.37 -1.01 -1.70 -1.60 -0.47 -0.65 -0.34 -0.79 0.37 -0.42 5.33 2.75 10.05 5.34 14.15 7.77 0.29 0.17 0.59 0.22 0.92 0.15 0.10 -0.02 0.10 -0.07 0.01 -0.15 -3.09 -2.74 -6.29 -5.05 -9.63 -6.94 -0.29 -0.17 -0.52 -0.39 -0.68 -0.68 -0.16 -0.29 0.05 -0.27 0.62 0.06 10.33 5.85 20.43 12.16 30.31 18.93 1.35 0.93 2.51 2.06 3.47 3.40 2.79 3.91 5.26 8.14 7.39 12.71 0.14 0.31 0.06 0.54 -0.22 0.71 -0.07 0.04 -0.30 -0.30 -0.70 -1.00 -1.56 -2.80 -3.03 -4.96 -4.41 -6.50 -0.23 -0.25 -0.28 -0.22 -0.18 0.10 1.33 3.92 3.29 8.47 5.88 13.65 0.87 1.75 0.54 2.02 -0.99 0.80 -1.59 -1.27 -3.55 -2.67 -5.86 -4.20 0.65 -0.48 0.90 -0.83 0.76 -1.05 -0.49 -0.76 -1.09 -1.42 -1.80 -1.98 -7.75 -6.05 -15.96 -11.16 -24.65 -15.32 -1.03 -0.50 -1.30 -0.78 -0.80 -0.86 0.33 -0.05 0.65 -0.03 0.96 0.08 3.73 1.23 7.76 2.94 12.08 5.12 0.30 0.15 0.58 0.11 0.83 -0.11 0.18 -0.16 0.06 -0.49 -0.37 -0.98 -0.21 -0.25 -0.47 -0.46 -0.76 -0.62 -9.13 -5.15 -18.06 -10.82 -26.81 -17.01 -5.22 -3.69 -8.26 -6.15 -9.13 -7.37 -3.27 -4.64 -5.35 -9.79 -6.23 -15.45 -0.05 -0.33 -0.12 -0.65 -0.21 -0.97 -1.40 -5.38 -1.94 -11.39 -1.62 -18.02 0.03 -0.66 0.43 -0.91 1.21 -0.75 Z"/>
<path fill="rgb(240,224,198)" fill-opacity="1.000" d="M 175.22 143.93 c 0.40 0.15 1.08 0.73 2.04 1.72 0.46 0.47 0.41 0.89 -0.15 1.24 -0.56 0.37 -1.09 0.84 -1.60 1.42 -0.21 0.25 -0.47 0.31 -0.78 0.18 -1.14 -0.49 -2.50 -0.81 -4.09 -0.98 -0.52 -0.05 -0.56 -0.21 -0.11 -0.48 1.47 -0.88 2.76 -1.85 3.86 -2.93 0.24 -0.23 0.52 -0.29 0.83 -0.17 Z"/>
<path fill="rgb(181,169,152)" fill-opacity="1.000" d="M 99.04 146.00 c 0.53 0.78 0.91 1.64 1.15 2.56 0.12 0.47 -0.01 0.60 -0.38 0.38 -0.71 -0.72 -1.14 -1.60 -1.31 -2.65 0.29 0.00 0.47 -0.10 0.54 -0.29 Z"/>
<path fill="rgb(248,242,228)" fill-opacity="1.000" d="M 76.94 159.31 c 4.25 3.62 8.54 7.10 12.85 10.44 -0.07 0.19 -0.25 0.29 -0.54 0.29 -4.79 -3.71 -9.62 -7.29 -14.50 -10.75 0.24 -0.12 0.42 -0.30 0.54 -0.54 0.38 -0.24 0.93 -0.05 1.65 0.56 Z"/>
<path fill="rgb(114,109,81)" fill-opacity="1.000" d="M 89.79 169.75 c 2.12 1.54 3.09 2.43 2.90 2.69 -0.16 0.21 -1.30 -0.59 -3.44 -2.40 0.29 0.00 0.47 -0.10 0.54 -0.29 Z"/>
<path fill="rgb(240,224,198)" fill-opacity="1.000" d="M 94.04 177.25 c 2.48 1.86 5.18 4.33 8.11 7.39 0.23 0.24 0.26 0.50 0.07 0.77 -0.03 0.09 -0.42 -0.24 -1.16 -0.97 -2.73 -2.71 -4.99 -4.44 -6.77 -5.19 -0.72 -0.51 -0.80 -1.18 -0.25 -2.00 Z"/>
<path fill="rgb(181,169,152)" fill-opacity="1.000" d="M 109.42 204.56 c -0.02 0.72 -0.48 1.29 -1.38 1.69 -0.11 -0.17 -0.22 -0.33 -0.33 -0.50 0.40 -1.19 0.81 -1.77 1.23 -1.73 0.33 0.03 0.49 0.21 0.48 0.54 Z"/>
<path fill="rgb(136,149,144)" fill-opacity="0.980" d="M 159.00 213.29 c 1.48 0.70 2.90 1.11 4.25 1.21 2.10 0.16 4.03 0.58 5.79 1.25 -0.20 0.49 -0.55 0.66 -1.04 0.50 -2.42 -0.59 -5.09 -1.09 -8.00 -1.50 -0.58 -0.08 -0.91 -0.57 -1.00 -1.46 Z"/>
</svg>